<?xml version="1.0" encoding="UTF-8"?>
<svg xmlns="http://www.w3.org/2000/svg" xmlns:xlink="http://www.w3.org/1999/xlink" width="36px" height="36px" viewBox="0 0 36 36" version="1.1">
<g id="surface1">
<path style=" stroke:none;fill-rule:nonzero;fill:rgb(0%,0%,0%);fill-opacity:1;" d="M 15.085938 0.425781 C 13.746094 0.882812 12.875 2.171875 12.621094 4.078125 C 12.269531 6.753906 13.523438 9.921875 15.574219 11.542969 C 16.058594 11.917969 16.859375 12.335938 17.351562 12.460938 C 17.734375 12.554688 18.46875 12.570312 18.894531 12.488281 C 19.945312 12.289062 20.957031 11.253906 21.375 9.960938 C 21.605469 9.226562 21.671875 8.695312 21.644531 7.679688 C 21.601562 6.222656 21.328125 5.167969 20.660156 3.851562 C 20.261719 3.058594 19.878906 2.515625 19.332031 1.933594 C 18.769531 1.339844 18.257812 0.960938 17.601562 0.652344 C 16.96875 0.355469 16.640625 0.28125 15.984375 0.28125 C 15.613281 0.28125 15.394531 0.320312 15.085938 0.425781 Z M 15.085938 0.425781 "/>
<path style=" stroke:none;fill-rule:nonzero;fill:rgb(0%,0%,0%);fill-opacity:1;" d="M 25.5 3.488281 C 24.925781 3.609375 24.304688 4.011719 23.921875 4.503906 C 23.277344 5.347656 22.949219 6.496094 22.949219 7.910156 C 22.949219 9.214844 23.164062 10.269531 23.714844 11.648438 C 24.609375 13.90625 26.363281 15.824219 28.039062 16.378906 C 28.367188 16.488281 28.546875 16.507812 29.109375 16.507812 C 29.722656 16.503906 29.816406 16.492188 30.179688 16.339844 C 30.492188 16.210938 30.65625 16.09375 30.992188 15.75 C 31.84375 14.902344 32.230469 13.769531 32.230469 12.148438 C 32.230469 10.199219 31.566406 8.132812 30.363281 6.339844 C 29.46875 5.007812 28.269531 4.011719 27.066406 3.59375 C 26.703125 3.464844 25.859375 3.410156 25.5 3.488281 Z M 25.5 3.488281 "/>
<path style=" stroke:none;fill-rule:nonzero;fill:rgb(0%,0%,0%);fill-opacity:1;" d="M 6.523438 5.714844 C 6.445312 5.726562 6.234375 5.765625 6.046875 5.800781 C 5.859375 5.832031 5.496094 5.957031 5.238281 6.082031 C 4.09375 6.613281 3.429688 7.761719 3.425781 9.214844 C 3.421875 11.53125 5.109375 14.113281 7.554688 15.546875 C 8.664062 16.195312 9.527344 16.441406 10.6875 16.441406 C 11.367188 16.441406 11.492188 16.425781 11.898438 16.289062 C 12.5 16.082031 12.925781 15.8125 13.285156 15.414062 C 13.867188 14.777344 14.136719 14.007812 14.128906 12.992188 C 14.117188 9.910156 11.171875 6.503906 7.929688 5.820312 C 7.507812 5.730469 6.75 5.675781 6.523438 5.714844 Z M 6.523438 5.714844 "/>
<path style=" stroke:none;fill-rule:nonzero;fill:rgb(0%,0%,0%);fill-opacity:1;" d="M 17.410156 14.101562 C 16.566406 14.265625 15.546875 14.933594 14.996094 15.6875 C 14.742188 16.03125 14.4375 16.640625 14.320312 17.042969 C 14.238281 17.3125 14.238281 17.449219 14.289062 18.085938 C 14.511719 20.71875 14.480469 23.636719 14.199219 26.269531 C 14.085938 27.332031 13.917969 28.5625 13.78125 29.328125 C 13.644531 30.070312 13.640625 30.335938 13.757812 30.9375 C 13.96875 32.050781 14.460938 32.96875 15.324219 33.828125 C 16.308594 34.824219 17.625 35.351562 18.949219 35.292969 C 19.59375 35.261719 20.070312 35.132812 20.699219 34.824219 C 21.199219 34.582031 21.296875 34.503906 22.308594 33.519531 C 23.328125 32.53125 23.839844 32.097656 24.609375 31.574219 C 25.820312 30.757812 27.296875 30.140625 28.882812 29.789062 C 30.078125 29.527344 30.410156 29.429688 30.800781 29.246094 C 32.207031 28.585938 33.140625 27.417969 33.59375 25.761719 C 33.699219 25.351562 33.714844 25.15625 33.714844 24.328125 C 33.714844 23.480469 33.699219 23.308594 33.5625 22.828125 C 33.304688 21.851562 32.789062 20.898438 32.136719 20.1875 C 31.40625 19.390625 31.050781 19.148438 29.546875 18.394531 C 26.554688 16.898438 25.085938 16.25 21.910156 15.019531 C 20.875 14.621094 19.492188 14.152344 19.128906 14.085938 C 18.625 13.988281 17.953125 13.996094 17.410156 14.101562 Z M 17.410156 14.101562 "/>
<path style=" stroke:none;fill-rule:nonzero;fill:rgb(0%,0%,0%);fill-opacity:1;" d="M 4.386719 16.144531 C 3.769531 16.226562 3.160156 16.457031 2.746094 16.761719 C 1.839844 17.433594 1.40625 18.371094 1.40625 19.6875 C 1.40625 22.355469 3.5625 25.316406 6.414062 26.578125 C 7.1875 26.925781 7.773438 27.0625 8.605469 27.09375 C 9.445312 27.128906 9.949219 27.039062 10.546875 26.753906 C 11.023438 26.527344 11.59375 26.015625 11.851562 25.589844 C 13.054688 23.574219 12.089844 20.34375 9.617188 18.136719 C 8.03125 16.71875 5.972656 15.9375 4.386719 16.144531 Z M 4.386719 16.144531 "/>
</g>
</svg>
